<svg width="63" height="73" viewBox="0 0 63 73" fill="none" xmlns="http://www.w3.org/2000/svg">
<rect y="31.9154" width="63" height="34.8923" rx="17.4462" fill="#28FAAE"/>
<g filter="url(#filter0_d_2825_2281)">
<path d="M50.303 60.4109C48.2238 55.4241 46.5035 51.5679 44.6826 47.9078M37.703 35.3078C40.558 40.0983 42.6811 43.8846 44.6826 47.9078M44.6826 47.9078C46.2481 36.4473 39.2855 24.2041 31.5 14.6785C29.3195 12.0107 26.9873 9.75964 24.7153 7.90241M44.6826 47.9078C33.9563 45.8418 26.4092 34.6649 21.3802 23.3862M19.8692 19.8001C15.3969 9.64513 12.0331 2.53973 11.6307 1.28777C11.2793 0.194628 17.7112 2.17688 24.7153 7.90241M19.8692 19.8001C20.3218 20.8277 20.6312 21.6788 21.0807 22.7078C21.1795 22.9339 21.2794 23.1601 21.3802 23.3862M19.8692 19.8001C21.7763 19.6563 28.2045 23.3862 28.2045 23.3862C28.2045 23.3862 23.4873 22.8728 21.3802 23.3862M24.7153 7.90241C24.9927 7.36914 24.954 12.1546 24.7153 12.9185M51.1753 62.1555C36.8307 65.6447 27.0415 63.9001 33.1476 62.1555C39.2538 60.4108 45.263 58.8601 40.9984 57.8908C36.7338 56.9216 28.9438 57.6556 19.8692 57.8908" stroke="white" stroke-width="1.3" stroke-linecap="square" stroke-linejoin="round" shape-rendering="geometricPrecision"/>
</g>
<defs>
<filter id="filter0_d_2825_2281" x="6.96716" y="0.350098" width="48.9934" height="72.4698" filterUnits="userSpaceOnUse" color-interpolation-filters="sRGB">
<feFlood flood-opacity="0" result="BackgroundImageFix"/>
<feColorMatrix in="SourceAlpha" type="matrix" values="0 0 0 0 0 0 0 0 0 0 0 0 0 0 0 0 0 0 127 0" result="hardAlpha"/>
<feOffset dy="4"/>
<feGaussianBlur stdDeviation="2"/>
<feComposite in2="hardAlpha" operator="out"/>
<feColorMatrix type="matrix" values="0 0 0 0 0 0 0 0 0 0 0 0 0 0 0 0 0 0 0.45 0"/>
<feBlend mode="normal" in2="BackgroundImageFix" result="effect1_dropShadow_2825_2281"/>
<feBlend mode="normal" in="SourceGraphic" in2="effect1_dropShadow_2825_2281" result="shape"/>
</filter>
</defs>
</svg>
